# xmcd
#
# Track frame offsets: 
#        150
#        13800
#        29400
#        50775
#        69975
#        82725
#        97615
#        118200
#        142350
#        160800
#        177900
#
# Disc length: 3235 seconds
#
# Revision: 0
# Processed by: cddbd v1.5.2PL0 Copyright (c) Steve Scherf et al.
# Submitted via: ExactAudioCopy v0.95a5
#
DISCID=900ca10b
DTITLE=Herrschaft - Tesla
DYEAR=2008
DGENRE=Metal Indus
TTITLE0=Valliant
TTITLE1=Human Soul
TTITLE2=The Grand Architects
TTITLE3=Under Perfect Control
TTITLE4=The Defenders
TTITLE5=Tesla
TTITLE6=Nemesis
TTITLE7=I Am the One
TTITLE8=Chaostructure
TTITLE9=Apocalypse Child
TTITLE10=Vortex
EXTD=
EXTT0=
EXTT1=
EXTT2=
EXTT3=
EXTT4=
EXTT5=
EXTT6=
EXTT7=
EXTT8=
EXTT9=
EXTT10=
PLAYORDER=
